<svg width="666" height="434" viewBox="0 0 666 434" fill="none" xmlns="http://www.w3.org/2000/svg">
<path fill-rule="evenodd" clip-rule="evenodd" d="M28.4567 4.18241V8.29254H29.1277H29.7987V4.18241V0.0722713H29.1277H28.4567V4.18241ZM103.11 4.18241V8.31183L103.823 8.26016L104.536 8.20866V4.18241V0.156151L103.823 0.104649L103.11 0.0529785V4.18241ZM180.448 4.18241V8.29254H181.119H181.79V4.18241V0.0722713H181.119H180.448V4.18241ZM255.177 0.285663C255.132 0.402927 255.115 2.2337 255.14 4.35386L255.185 8.20866L255.814 8.26067L256.443 8.31284V4.19247V0.0722713H255.851C255.525 0.0722713 255.222 0.16823 255.177 0.285663ZM328.916 4.18241V8.29254H329.587H330.258V4.18241V0.0722713H329.587H328.916V4.18241ZM403.234 4.18241V8.29254H403.905H404.576V4.18241V0.0722713H403.905H403.234V4.18241ZM477.384 4.18241V8.29254H478.055H478.726V4.18241V0.0722713H478.055H477.384V4.18241ZM552.541 4.18241V8.29254H553.212H553.883V4.18241V0.0722713H553.212H552.541V4.18241ZM627.194 4.18241V8.29254H627.865H628.536V4.18241V0.0722713H627.865H627.194V4.18241ZM28.4567 20.7907V24.9008H29.1277H29.7987V20.7907V16.6806H29.1277H28.4567V20.7907ZM103.11 20.8003V24.9201L103.823 24.8685L104.536 24.817L104.581 20.7488L104.626 16.6806H103.868H103.11V20.8003ZM180.448 20.7907V24.9008H181.119H181.79V20.7907V16.6806H181.119H180.448V20.7907ZM255.14 20.7488L255.185 24.817L255.814 24.869L256.443 24.9211V20.8008V16.6806H255.769H255.095L255.14 20.7488ZM328.916 20.7907V24.9008H329.587H330.258V20.7907V16.6806H329.587H328.916V20.7907ZM403.234 20.7907V24.9008H403.905H404.576V20.7907V16.6806H403.905H403.234V20.7907ZM477.384 20.7907V24.9008H478.055H478.726V20.7907V16.6806H478.055H477.384V20.7907ZM552.541 20.7907V24.9008H553.212H553.883V20.7907V16.6806H553.212H552.541V20.7907ZM627.194 20.7907V24.9008H627.865H628.536V20.7907V16.6806H627.865H627.194V20.7907ZM0.608398 29.7659V30.4369H4.71853H8.82867V29.7659V29.0949H4.71853H0.608398V29.7659ZM17.0489 29.7688V30.4428L21.201 30.3979L25.3531 30.3531L25.4051 29.724L25.4573 29.0949H21.253H17.0489V29.7688ZM33.6572 29.7659V30.4369H37.7674H41.8775V29.7659V29.0949H37.7674H33.6572V29.7659ZM50.2655 29.7659V30.4369H54.3757H58.4858V29.7659V29.0949H54.3757H50.2655V29.7659ZM66.738 29.724L66.79 30.3531L70.942 30.3979L75.0941 30.4428V29.7688V29.0949H70.89H66.6858L66.738 29.724ZM83.3144 29.7688V30.4428L87.4665 30.3979L91.6185 30.3531L91.6705 29.724L91.7227 29.0949H87.5185H83.3144V29.7688ZM99.9227 29.7659V30.4369H104.033H108.143V29.7659V29.0949H104.033H99.9227V29.7659ZM116.395 29.724L116.447 30.3531H120.557H124.667L124.719 29.724L124.772 29.0949H120.557H116.343L116.395 29.724ZM133.003 29.724L133.055 30.3531H137.166H141.276L141.328 29.724L141.38 29.0949H137.166H132.951L133.003 29.724ZM144.044 29.7689V30.443L148.028 30.398L152.012 30.3531L152.064 29.724L152.117 29.0949H148.08H144.044V29.7689ZM160.316 29.7659V30.4369H164.427H168.537V29.7659V29.0949H164.427H160.316V29.7659ZM176.789 29.724L176.841 30.3531L180.993 30.3979L185.145 30.4428V29.7688V29.0949H180.941H176.737L176.789 29.724ZM193.365 29.7688V30.4428L197.517 30.3979L201.669 30.3531L201.721 29.724L201.774 29.0949H197.569H193.365V29.7688ZM209.974 29.7659V30.4369H214.084H218.194V29.7659V29.0949H214.084H209.974V29.7659ZM226.446 29.724L226.498 30.3531L230.65 30.3979L234.802 30.4428V29.7688V29.0949H230.598H226.394L226.446 29.724ZM243.054 29.724L243.106 30.3531H247.216H251.327L251.379 29.724L251.431 29.0949H247.216H243.002L243.054 29.724ZM259.631 29.7659V30.4369H263.741H267.851V29.7659V29.0949H263.741H259.631V29.7659ZM276.137 29.3342C276.086 29.4659 276.07 29.7491 276.1 29.9634L276.155 30.3531L280.307 30.3979L284.459 30.4428V29.7688V29.0949H280.344C276.934 29.0949 276.213 29.136 276.137 29.3342ZM292.711 29.724L292.763 30.3531L296.916 30.3979L301.068 30.4428V29.7688V29.0949H296.864H292.659L292.711 29.724ZM309.32 29.724L309.372 30.3531H313.482H317.592L317.644 29.724L317.696 29.0949H313.482H309.268L309.32 29.724ZM325.896 29.7659V30.4369H330.006H334.116V29.7659V29.0949H330.006H325.896V29.7659ZM342.505 29.7659V30.4369H346.615H350.725V29.7659V29.0949H346.615H342.505V29.7659ZM358.977 29.724L359.029 30.3531H363.139H367.249L367.301 29.724L367.353 29.0949H363.139H358.925L358.977 29.724ZM375.553 29.7659V30.4369H379.663H383.774V29.7659V29.0949H379.663H375.553V29.7659ZM392.162 29.7659V30.4369H396.272H400.382V29.7659V29.0949H396.272H392.162V29.7659ZM408.634 29.724L408.686 30.3531H412.796H416.906L416.958 29.724L417.011 29.0949H412.796H408.582L408.634 29.724ZM425.211 29.7688V30.4428L429.363 30.3979L433.515 30.3531L433.567 29.724L433.619 29.0949H429.415H425.211V29.7688ZM441.819 29.7659V30.4369H445.929H450.039V29.7659V29.0949H445.929H441.819V29.7659ZM458.291 29.724L458.343 30.3531L462.495 30.3979L466.647 30.4428V29.7688V29.0949H462.443H458.239L458.291 29.724ZM474.868 29.7688V30.4428L479.02 30.3979L483.172 30.3531L483.224 29.724L483.276 29.0949H479.072H474.868V29.7688ZM491.476 29.7659V30.4369H495.586H499.696V29.7659V29.0949H495.586H491.476V29.7659ZM508.084 29.7659V30.4369H512.194H516.305V29.7659V29.0949H512.194H508.084V29.7659ZM524.557 29.724L524.609 30.3531H528.719H532.829L532.881 29.724L532.933 29.0949H528.719H524.505L524.557 29.724ZM541.133 29.7659V30.4369H545.243H549.353V29.7659V29.0949H545.243H541.133V29.7659ZM557.606 29.724L557.658 30.3531L561.81 30.3979L565.962 30.4428V29.7688V29.0949H561.758H557.553L557.606 29.724ZM574.214 29.724L574.266 30.3531H578.376H582.486L582.538 29.724L582.59 29.0949H578.376H574.162L574.214 29.724ZM590.79 29.7659V30.4428L594.942 30.3979L599.094 30.3531V29.7659V29.1787L594.942 29.1339L590.79 29.089V29.7659ZM607.399 29.7659V30.4369H611.509H615.619V29.7659V29.0949H611.509H607.399V29.7659ZM623.871 29.724L623.923 30.3531L628.075 30.3979L632.227 30.4428V29.7688V29.0949H628.023H623.819L623.871 29.724ZM640.447 29.7688V30.4428L644.599 30.3979L648.752 30.3531L648.804 29.724L648.856 29.0949H644.651H640.447V29.7688ZM657.056 29.7659V30.4369H661.166H665.276V29.7659V29.0949H661.166H657.056V29.7659ZM28.4567 37.3151V41.5091H29.1277H29.7987V37.3151V33.1211H29.1277H28.4567V37.3151ZM103.189 33.3241C103.142 33.4469 103.124 35.32 103.149 37.4864L103.194 41.4253H103.865H104.536V37.3151V33.205L103.906 33.1528C103.496 33.1189 103.245 33.1788 103.189 33.3241ZM180.448 37.3151V41.5091H181.119H181.79V37.3151V33.1211H181.119H180.448V37.3151ZM255.177 33.3343C255.132 33.4516 255.115 35.32 255.14 37.4864L255.185 41.4253L255.814 41.4773L256.443 41.5294V37.3252V33.1211H255.851C255.525 33.1211 255.222 33.2171 255.177 33.3343ZM328.916 37.3151V41.5091H329.587H330.258V37.3151V33.1211H329.587H328.916V37.3151ZM403.234 37.3151V41.5091H403.905H404.576V37.3151V33.1211H403.905H403.234V37.3151ZM477.384 37.3151V41.5091H478.055H478.726V37.3151V33.1211H478.055H477.384V37.3151ZM552.541 37.3151V41.5091H553.212H553.883V37.3151V33.1211H553.212H552.541V37.3151ZM627.194 37.3151V41.5091H627.865H628.536V37.3151V33.1211H627.865H627.194V37.3151ZM28.4567 53.8395V57.9497H29.1277H29.7987V53.8395V49.7294H29.1277H28.4567V53.8395ZM103.11 53.8395V57.9497H103.865H104.62V53.8395V49.7294H103.865H103.11V53.8395ZM180.448 53.8395V57.9497H181.119H181.79V53.8395V49.7294H181.119H180.448V53.8395ZM255.101 53.8395V57.9497H255.772H256.443V53.8395V49.7294H255.772H255.101V53.8395ZM328.916 53.8395V57.9497H329.587H330.258V53.8395V49.7294H329.587H328.916V53.8395ZM403.234 53.8395V57.9497H403.905H404.576V53.8395V49.7294H403.905H403.234V53.8395ZM477.384 53.8395V57.9497H478.055H478.726V53.8395V49.7294H478.055H477.384V53.8395ZM552.541 53.8395V57.9497H553.212H553.883V53.8395V49.7294H553.212H552.541V53.8395ZM627.194 53.8395V57.9497H627.865H628.536V53.8395V49.7294H627.865H627.194V53.8395ZM28.4567 70.4478V74.558H29.1277H29.7987V70.4478V66.3377H29.1277H28.4567V70.4478ZM103.11 70.4574V74.5773L103.823 74.5256L104.536 74.4741L104.581 70.4059L104.626 66.3377H103.868H103.11V70.4574ZM180.448 70.4478V74.558H181.119H181.79V70.4478V66.3377H181.119H180.448V70.4478ZM255.14 70.4059L255.185 74.4741L255.814 74.5261L256.443 74.5783V70.4579V66.3377H255.769H255.095L255.14 70.4059ZM328.916 70.4478V74.558H329.587H330.258V70.4478V66.3377H329.587H328.916V70.4478ZM403.234 70.4478V74.558H403.905H404.576V70.4478V66.3377H403.905H403.234V70.4478ZM477.384 70.4478V74.558H478.055H478.726V70.4478V66.3377H478.055H477.384V70.4478ZM552.541 70.4478V74.558H553.212H553.883V70.4478V66.3377H553.212H552.541V70.4478ZM627.194 70.4478V74.558H627.865H628.536V70.4478V66.3377H627.865H627.194V70.4478ZM28.4567 86.9723V91.1663H29.1277H29.7987V86.9723V82.7783H29.1277H28.4567V86.9723ZM103.189 82.9812C103.142 83.104 103.124 84.9771 103.149 87.1435L103.194 91.0824H103.865H104.536V86.9723V82.8621L103.906 82.81C103.496 82.7761 103.245 82.836 103.189 82.9812ZM180.56 82.8901C180.498 82.9515 180.448 84.8389 180.448 87.0842V91.1663H181.119H181.79V86.9723V82.7783H181.231C180.923 82.7783 180.621 82.8286 180.56 82.8901ZM255.177 82.9915C255.132 83.1087 255.115 84.9771 255.14 87.1435L255.185 91.0824L255.814 91.1344L256.443 91.1866V86.9823V82.7783H255.851C255.525 82.7783 255.222 82.8742 255.177 82.9915ZM329.028 82.8901C328.966 82.9515 328.916 84.8389 328.916 87.0842V91.1663H329.587H330.258V86.9723V82.7783H329.699C329.391 82.7783 329.089 82.8286 329.028 82.8901ZM403.234 86.9622V91.1663H403.908H404.582L404.537 87.0142L404.492 82.8621L403.863 82.8101L403.234 82.758V86.9622ZM477.496 82.8901C477.434 82.9515 477.384 84.8389 477.384 87.0842V91.1663H478.055H478.726V86.9723V82.7783H478.167C477.859 82.7783 477.557 82.8286 477.496 82.8901ZM552.541 86.9723V91.1663H553.212H553.883V86.9723V82.7783H553.212H552.541V86.9723ZM627.306 82.8901C627.245 82.9515 627.194 84.8389 627.194 87.0842V91.1663H627.865H628.536V86.9723V82.7783H627.977C627.67 82.7783 627.368 82.8286 627.306 82.8901ZM28.4567 103.581V107.775H29.1277H29.7987V103.581V99.3866H29.1277H28.4567V103.581ZM103.23 99.4904C103.164 99.5563 103.11 100.428 103.11 101.428V103.245H101.516H99.9227V103.916V104.587H101.51H103.098L103.146 106.139L103.194 107.691H103.865H104.536L104.584 106.139L104.633 104.587H106.388H108.143V103.916V103.245H106.387H104.631L104.584 101.358L104.536 99.4704L103.943 99.4204C103.617 99.3931 103.296 99.4245 103.23 99.4904ZM180.448 101.31V103.234L178.644 103.281L176.841 103.329L176.789 103.958L176.737 104.587H178.592H180.448V106.181V107.775H181.119H181.79V106.181V104.587H183.467H185.145V103.916V103.245H183.467H181.79V101.316V99.3866H181.119H180.448V101.31ZM255.177 99.5998C255.132 99.717 255.115 101.585 255.14 103.752L255.185 107.691L255.814 107.743L256.443 107.795V103.591V99.3866H255.851C255.525 99.3866 255.222 99.4825 255.177 99.5998ZM329.028 99.4984C328.966 99.5598 328.916 100.428 328.916 101.428V103.245H327.406H325.896V103.916V104.587H327.406H328.916V106.181V107.775H329.587H330.258V106.181V104.587H332.187H334.116V103.916V103.245H332.187H330.258V101.316V99.3866H329.699C329.391 99.3866 329.089 99.4369 329.028 99.4984ZM403.234 103.581V107.775H403.905H404.576V103.581V99.3866H403.905H403.234V103.581ZM477.384 101.316V103.245H476.126H474.868V103.916V104.587H476.126H477.384V106.181V107.775H478.055H478.726V106.181V104.587H481.001H483.276L483.224 103.958L483.172 103.329L480.949 103.282L478.726 103.235V101.311V99.3866H478.055H477.384V101.316ZM552.541 103.581V107.775H553.212H553.883V103.581V99.3866H553.212H552.541V103.581ZM627.306 99.4984C627.245 99.5598 627.194 100.428 627.194 101.428V103.245H625.517H623.839V103.916V104.587H625.517H627.194V106.181V107.775H627.865H628.536V106.181V104.587H630.382H632.227V103.916V103.245H630.382H628.536V101.316V99.3866H627.977C627.67 99.3866 627.368 99.4369 627.306 99.4984ZM0.608398 103.916V104.587H4.71853H8.82867V103.916V103.245H4.71853H0.608398V103.916ZM17.0489 103.913V104.587H21.253H25.4573L25.4051 103.958L25.3531 103.329L21.201 103.284L17.0489 103.239V103.913ZM33.6572 103.916V104.587H37.7674H41.8775V103.916V103.245H37.7674H33.6572V103.916ZM50.2655 103.916V104.587H54.3757H58.4858V103.916V103.245H54.3757H50.2655V103.916ZM66.818 103.357C66.7564 103.418 66.7061 103.72 66.7061 104.028V104.587H70.9001H75.0941V103.916V103.245H71.012C68.7667 103.245 66.8794 103.295 66.818 103.357ZM83.3144 103.913V104.587H87.5185H91.7227L91.6705 103.958L91.6185 103.329L87.4665 103.284L83.3144 103.239V103.913ZM116.475 103.357C116.414 103.418 116.363 103.72 116.363 104.028V104.587H120.557H124.751V103.916V103.245H120.669C118.424 103.245 116.537 103.295 116.475 103.357ZM132.972 103.913V104.587H137.176H141.38L141.328 103.958L141.276 103.329L137.124 103.284L132.972 103.239V103.913ZM144.044 103.913V104.587H148.08H152.117L152.064 103.958L152.012 103.329L148.028 103.284L144.044 103.239V103.913ZM160.316 103.916V104.587H164.427H168.537V103.916V103.245H164.427H160.316V103.916ZM193.365 103.913V104.587H197.569H201.774L201.721 103.958L201.669 103.329L197.517 103.284L193.365 103.239V103.913ZM209.974 103.916V104.587H214.084H218.194V103.916V103.245H214.084H209.974V103.916ZM226.526 103.357C226.464 103.418 226.414 103.72 226.414 104.028V104.587H230.608H234.802V103.916V103.245H230.72C228.475 103.245 226.587 103.295 226.526 103.357ZM243.022 103.916V104.587H247.216H251.41V103.916V103.245H247.216H243.022V103.916ZM259.631 103.916V104.587H263.741H267.851V103.916V103.245H263.741H259.631V103.916ZM276.183 103.357C276.122 103.418 276.071 103.72 276.071 104.028V104.587H280.265H284.459V103.916V103.245H280.377C278.132 103.245 276.245 103.295 276.183 103.357ZM292.792 103.357C292.73 103.418 292.68 103.72 292.68 104.028V104.587H296.874H301.068V103.916V103.245H296.986C294.74 103.245 292.853 103.295 292.792 103.357ZM309.288 103.913V104.587H313.492H317.696L317.644 103.958L317.592 103.329L313.44 103.284L309.288 103.239V103.913ZM342.505 103.916V104.587H346.615H350.725V103.916V103.245H346.615H342.505V103.916ZM358.945 103.916V104.587H363.139H367.333V103.916V103.245H363.139H358.945V103.916ZM375.553 103.916V104.587H379.663H383.774V103.916V103.245H379.663H375.553V103.916ZM392.162 103.916V104.587H396.272H400.382V103.916V103.245H396.272H392.162V103.916ZM408.714 103.357C408.653 103.418 408.602 103.72 408.602 104.028V104.587H412.796H416.99V103.916V103.245H412.908C410.663 103.245 408.775 103.295 408.714 103.357ZM425.211 103.913V104.587H429.415H433.619L433.567 103.958L433.515 103.329L429.363 103.284L425.211 103.239V103.913ZM441.819 103.916V104.587H445.929H450.039V103.916V103.245H445.929H441.819V103.916ZM458.259 103.916V104.587H462.453H466.647V103.916V103.245H462.453H458.259V103.916ZM491.476 103.916V104.587H495.586H499.696V103.916V103.245H495.586H491.476V103.916ZM508.084 103.916V104.587H512.194H516.305V103.916V103.245H512.194H508.084V103.916ZM524.525 103.916V104.587H528.719H532.913V103.916V103.245H528.719H524.525V103.916ZM541.133 103.916V104.587H545.243H549.353V103.916V103.245H545.243H541.133V103.916ZM557.686 103.357C557.624 103.418 557.574 103.72 557.574 104.028V104.587H561.768H565.962V103.916V103.245H561.88C559.634 103.245 557.747 103.295 557.686 103.357ZM574.297 103.354C574.234 103.417 574.182 103.72 574.182 104.028V104.587H578.386H582.59L582.538 103.958L582.486 103.329L578.449 103.284C576.228 103.259 574.36 103.291 574.297 103.354ZM590.79 103.913V104.587H594.994H599.199L599.146 103.958L599.094 103.329L594.942 103.284L590.79 103.239V103.913ZM607.399 103.916V104.587H611.509H615.619V103.916V103.245H611.509H607.399V103.916ZM640.447 103.913V104.587H644.651H648.856L648.804 103.958L648.752 103.329L644.599 103.284L640.447 103.239V103.913ZM657.056 103.916V104.587H661.166H665.276V103.916V103.245H661.166H657.056V103.916ZM28.4567 120.105V124.215H29.1277H29.7987V120.105V115.995H29.1277H28.4567V120.105ZM103.11 120.105V124.215H103.865H104.62V120.105V115.995H103.865H103.11V120.105ZM180.448 120.105V124.215H181.119H181.79V120.105V115.995H181.119H180.448V120.105ZM255.101 120.105V124.215H255.772H256.443V120.105V115.995H255.772H255.101V120.105ZM328.916 120.105V124.215H329.587H330.258V120.105V115.995H329.587H328.916V120.105ZM403.234 120.105V124.215H403.905H404.576V120.105V115.995H403.905H403.234V120.105ZM477.384 120.105V124.215H478.055H478.726V120.105V115.995H478.055H477.384V120.105ZM552.541 120.105V124.215H553.212H553.883V120.105V115.995H553.212H552.541V120.105ZM627.194 120.105V124.215H627.865H628.536V120.105V115.995H627.865H627.194V120.105ZM28.4567 136.713V140.823H29.1277H29.7987V136.713V132.603H29.1277H28.4567V136.713ZM103.11 136.713V140.823H103.865H104.62V136.713V132.603H103.865H103.11V136.713ZM180.448 136.713V140.823H181.119H181.79V136.713V132.603H181.119H180.448V136.713ZM255.101 136.713V140.823H255.772H256.443V136.713V132.603H255.772H255.101V136.713ZM328.916 136.713V140.823H329.587H330.258V136.713V132.603H329.587H328.916V136.713ZM403.234 136.713V140.823H403.905H404.576V136.713V132.603H403.905H403.234V136.713ZM477.384 136.713V140.823H478.055H478.726V136.713V132.603H478.055H477.384V136.713ZM552.541 136.713V140.823H553.212H553.883V136.713V132.603H553.212H552.541V136.713ZM627.194 136.713V140.823H627.865H628.536V136.713V132.603H627.865H627.194V136.713ZM28.4567 153.238V157.432H29.1277H29.7987V153.238V149.044H29.1277H28.4567V153.238ZM103.189 149.247C103.142 149.369 103.124 151.243 103.149 153.409L103.194 157.348H103.865H104.536V153.238V149.128L103.906 149.075C103.496 149.042 103.245 149.101 103.189 149.247ZM180.448 153.238V157.432H181.119H181.79V153.238V149.044H181.119H180.448V153.238ZM255.177 149.257C255.132 149.374 255.115 151.243 255.14 153.409L255.185 157.348L255.814 157.4L256.443 157.452V153.248V149.044H255.851C255.525 149.044 255.222 149.14 255.177 149.257ZM328.955 153.196L329 157.348L329.629 157.4L330.258 157.452V153.248V149.044H329.584H328.91L328.955 153.196ZM403.234 153.238V157.432H403.905H404.576V153.238V149.044H403.905H403.234V153.238ZM477.384 153.238V157.432H478.055H478.726V153.238V149.044H478.055H477.384V153.238ZM552.541 153.238V157.432H553.212H553.883V153.238V149.044H553.212H552.541V153.238ZM627.194 153.238V157.432H627.865H628.536V153.238V149.044H627.865H627.194V153.238ZM28.4567 169.846V174.04H29.1277H29.7987V169.846V165.652H29.1277H28.4567V169.846ZM103.189 165.855C103.142 165.978 103.124 167.851 103.149 170.017L103.194 173.956H103.865H104.536V169.846V165.736L103.906 165.684C103.496 165.65 103.245 165.71 103.189 165.855ZM180.487 169.804L180.532 173.956L181.161 174.008L181.79 174.06V169.856V165.652H181.116H180.442L180.487 169.804ZM255.177 165.865C255.132 165.982 255.115 167.851 255.14 170.017L255.185 173.956L255.814 174.008L256.443 174.06V169.856V165.652H255.851C255.525 165.652 255.222 165.748 255.177 165.865ZM328.955 169.804L329 173.956L329.629 174.008L330.258 174.06V169.856V165.652H329.584H328.91L328.955 169.804ZM403.234 169.856V174.06L403.863 174.008L404.492 173.956L404.537 169.804L404.582 165.652H403.908H403.234V169.856ZM477.423 169.804L477.468 173.956L478.097 174.008L478.726 174.06V169.856V165.652H478.052H477.378L477.423 169.804ZM552.541 169.846V174.04H553.212H553.883V169.846V165.652H553.212H552.541V169.846ZM627.233 169.804L627.278 173.956L627.907 174.008L628.536 174.06V169.856V165.652H627.862H627.188L627.233 169.804ZM0.608398 177.731V178.402H4.71853H8.82867V177.731V177.06H4.71853H0.608398V177.731ZM17.0489 177.728V178.402H21.253H25.4573L25.4051 177.773L25.3531 177.144L21.201 177.099L17.0489 177.054V177.728ZM33.6572 177.731V178.402H37.7674H41.8775V177.731V177.06H37.7674H33.6572V177.731ZM50.2655 177.731V178.402H54.3757H58.4858V177.731V177.06H54.3757H50.2655V177.731ZM66.818 177.172C66.7564 177.233 66.7061 177.535 66.7061 177.843V178.402H70.9001H75.0941V177.731V177.06H71.012C68.7667 177.06 66.8794 177.11 66.818 177.172ZM83.3144 177.731V178.408L87.4665 178.363L91.6185 178.318V177.731V177.144L87.4665 177.099L83.3144 177.054V177.731ZM99.9227 177.731V178.402H104.033H108.143V177.731V177.06H104.033H99.9227V177.731ZM116.475 177.172C116.414 177.233 116.363 177.535 116.363 177.843V178.402H120.557H124.751V177.731V177.06H120.669C118.424 177.06 116.537 177.11 116.475 177.172ZM132.972 177.728V178.402H137.176H141.38L141.328 177.773L141.276 177.144L137.124 177.099L132.972 177.054V177.728ZM144.044 177.728V178.402H148.08H152.117L152.064 177.773L152.012 177.144L148.028 177.099L144.044 177.054V177.728ZM160.316 177.731V178.402H164.427H168.537V177.731V177.06H164.427H160.316V177.731ZM176.869 177.172C176.807 177.233 176.757 177.535 176.757 177.843V178.402H180.951H185.145V177.731V177.06H181.063C178.818 177.06 176.93 177.11 176.869 177.172ZM193.365 177.728V178.402H197.569H201.774L201.721 177.773L201.669 177.144L197.517 177.099L193.365 177.054V177.728ZM209.974 177.731V178.402H214.084H218.194V177.731V177.06H214.084H209.974V177.731ZM226.526 177.172C226.464 177.233 226.414 177.535 226.414 177.843V178.402H230.608H234.802V177.731V177.06H230.72C228.475 177.06 226.587 177.11 226.526 177.172ZM243.022 177.731V178.402H247.216H251.41V177.731V177.06H247.216H243.022V177.731ZM259.631 177.731V178.402H263.741H267.851V177.731V177.06H263.741H259.631V177.731ZM276.137 177.299C276.086 177.431 276.07 177.714 276.1 177.928L276.155 178.318L280.307 178.363L284.459 178.408V177.734V177.06H280.344C276.934 177.06 276.213 177.101 276.137 177.299ZM292.792 177.172C292.73 177.233 292.68 177.535 292.68 177.843V178.402H296.874H301.068V177.731V177.06H296.986C294.74 177.06 292.853 177.11 292.792 177.172ZM309.288 177.728V178.402H313.492H317.696L317.644 177.773L317.592 177.144L313.44 177.099L309.288 177.054V177.728ZM325.896 177.731V178.402H330.006H334.116V177.731V177.06H330.006H325.896V177.731ZM342.505 177.731V178.402H346.615H350.725V177.731V177.06H346.615H342.505V177.731ZM358.945 177.731V178.402H363.139H367.333V177.731V177.06H363.139H358.945V177.731ZM375.553 177.731V178.402H379.663H383.774V177.731V177.06H379.663H375.553V177.731ZM392.162 177.731V178.402H396.272H400.382V177.731V177.06H396.272H392.162V177.731ZM408.714 177.172C408.653 177.233 408.602 177.535 408.602 177.843V178.402H412.796H416.99V177.731V177.06H412.908C410.663 177.06 408.775 177.11 408.714 177.172ZM425.211 177.728V178.402H429.415H433.619L433.567 177.773L433.515 177.144L429.363 177.099L425.211 177.054V177.728ZM441.819 177.731V178.402H445.929H450.039V177.731V177.06H445.929H441.819V177.731ZM458.259 177.731V178.402H462.453H466.647V177.731V177.06H462.453H458.259V177.731ZM474.868 177.731V178.408L479.02 178.363L483.172 178.318V177.731V177.144L479.02 177.099L474.868 177.054V177.731ZM491.476 177.731V178.402H495.586H499.696V177.731V177.06H495.586H491.476V177.731ZM508.084 177.731V178.402H512.194H516.305V177.731V177.06H512.194H508.084V177.731ZM524.525 177.731V178.402H528.719H532.913V177.731V177.06H528.719H524.525V177.731ZM541.133 177.731V178.402H545.243H549.353V177.731V177.06H545.243H541.133V177.731ZM557.686 177.172C557.624 177.233 557.574 177.535 557.574 177.843V178.402H561.768H565.962V177.731V177.06H561.88C559.634 177.06 557.747 177.11 557.686 177.172ZM574.297 177.169C574.234 177.232 574.182 177.535 574.182 177.843V178.402H578.386H582.59L582.538 177.773L582.486 177.144L578.449 177.099C576.228 177.074 574.36 177.106 574.297 177.169ZM590.79 177.731V178.408L594.942 178.363L599.094 178.318V177.731V177.144L594.942 177.099L590.79 177.054V177.731ZM607.399 177.731V178.402H611.509H615.619V177.731V177.06H611.509H607.399V177.731ZM623.839 177.731V178.402H628.033H632.227V177.731V177.06H628.033H623.839V177.731ZM640.447 177.728V178.402H644.651H648.856L648.804 177.773L648.752 177.144L644.599 177.099L640.447 177.054V177.728ZM657.056 177.731V178.402H661.166H665.276V177.731V177.06H661.166H657.056V177.731ZM28.4567 186.37V190.481H29.1277H29.7987V186.37V182.26H29.1277H28.4567V186.37ZM103.11 186.37V190.481H103.865H104.62V186.37V182.26H103.865H103.11V186.37ZM180.448 186.37V190.481H181.119H181.79V186.37V182.26H181.119H180.448V186.37ZM255.101 186.37V190.481H255.772H256.443V186.37V182.26H255.772H255.101V186.37ZM328.916 186.37V190.481H329.587H330.258V186.37V182.26H329.587H328.916V186.37ZM403.234 186.37V190.481H403.905H404.576V186.37V182.26H403.905H403.234V186.37ZM477.384 186.37V190.481H478.055H478.726V186.37V182.26H478.055H477.384V186.37ZM552.541 186.37V190.481H553.212H553.883V186.37V182.26H553.212H552.541V186.37ZM627.194 186.37V190.481H627.865H628.536V186.37V182.26H627.865H627.194V186.37ZM28.5686 198.813C28.507 198.874 28.4567 200.761 28.4567 203.007V207.089H29.1277H29.7987V202.895V198.701H29.2396C28.9319 198.701 28.63 198.751 28.5686 198.813ZM103.23 198.805C103.164 198.871 103.11 200.761 103.11 203.007V207.089H103.868H104.626L104.581 202.937L104.536 198.785L103.943 198.735C103.617 198.707 103.296 198.739 103.23 198.805ZM180.56 198.813C180.498 198.874 180.448 200.761 180.448 203.007V207.089H181.119H181.79V202.895V198.701H181.231C180.923 198.701 180.621 198.751 180.56 198.813ZM255.213 198.813C255.152 198.874 255.101 200.761 255.101 203.007V207.089H255.772H256.443V202.895V198.701H255.884C255.577 198.701 255.275 198.751 255.213 198.813ZM329.036 198.805C328.97 198.871 328.916 200.761 328.916 203.007V207.089H329.59H330.264L330.219 202.937L330.174 198.785L329.665 198.735C329.385 198.707 329.102 198.739 329.036 198.805ZM403.234 202.885V207.089H403.908H404.582L404.537 202.937L404.492 198.785L403.863 198.733L403.234 198.681V202.885ZM477.496 198.813C477.434 198.874 477.384 200.761 477.384 203.007V207.089H478.055H478.726V202.895V198.701H478.167C477.859 198.701 477.557 198.751 477.496 198.813ZM552.541 202.885V207.089H553.215H553.889L553.844 202.937L553.799 198.785L553.17 198.733L552.541 198.681V202.885ZM627.306 198.813C627.245 198.874 627.194 200.761 627.194 203.007V207.089H627.865H628.536V202.895V198.701H627.977C627.67 198.701 627.368 198.751 627.306 198.813ZM28.4567 219.503V223.697H29.1277H29.7987V219.503V215.309H29.1277H28.4567V219.503ZM103.149 219.451L103.194 223.613H103.865H104.536V219.503V215.393L103.82 215.341L103.104 215.29L103.149 219.451ZM180.487 219.461L180.532 223.613L181.161 223.665L181.79 223.717V219.513V215.309H181.116H180.442L180.487 219.461ZM255.177 215.522C255.132 215.64 255.115 217.508 255.14 219.674L255.185 223.613L255.814 223.665L256.443 223.717V219.513V215.309H255.851C255.525 215.309 255.222 215.405 255.177 215.522ZM328.955 219.461L329 223.613L329.629 223.665L330.258 223.717V219.513V215.309H329.584H328.91L328.955 219.461ZM403.234 219.513V223.717L403.863 223.665L404.492 223.613L404.537 219.461L404.582 215.309H403.908H403.234V219.513ZM477.423 219.461L477.468 223.613L478.097 223.665L478.726 223.717V219.513V215.309H478.052H477.378L477.423 219.461ZM552.541 219.503V223.697H553.212H553.883V219.503V215.309H553.212H552.541V219.503ZM627.233 219.461L627.278 223.613L627.907 223.665L628.536 223.717V219.513V215.309H627.862H627.188L627.233 219.461ZM28.4567 236.028V240.138H29.1277H29.7987V236.028V231.917H29.1277H28.4567V236.028ZM103.11 236.018V240.138H103.868H104.626L104.581 236.07L104.536 232.001L103.823 231.95L103.11 231.898V236.018ZM180.448 236.028V240.138H181.119H181.79V236.028V231.917H181.119H180.448V236.028ZM255.213 232.029C255.152 232.091 255.101 233.94 255.101 236.139V240.138H255.772H256.443V236.028V231.917H255.884C255.577 231.917 255.275 231.968 255.213 232.029ZM328.916 236.028V240.138H329.587H330.258V236.028V231.917H329.587H328.916V236.028ZM403.234 236.028V240.138H403.905H404.576V236.028V231.917H403.905H403.234V236.028ZM477.384 236.028V240.138H478.055H478.726V236.028V231.917H478.055H477.384V236.028ZM552.541 236.028V240.138H553.212H553.883V236.028V231.917H553.212H552.541V236.028ZM627.194 236.028V240.138H627.865H628.536V236.028V231.917H627.865H627.194V236.028ZM28.4567 252.636V256.746H29.1277H29.7987V252.636V248.526H29.1277H28.4567V252.636ZM103.11 250.119V251.713H101.516H99.9227V252.384V253.055H101.516H103.11V254.91V256.765L103.823 256.714L104.536 256.662L104.584 254.859L104.631 253.055H106.387H108.143V252.384V251.713H106.381H104.62V250.119V248.526H103.865H103.11V250.119ZM180.448 250.119V251.713H178.602H176.757V252.384V253.055H178.602H180.448V254.901V256.746H181.119H181.79V254.901V253.055H183.467H185.145V252.384V251.713H183.467H181.79V250.119V248.526H181.119H180.448V250.119ZM255.14 252.594L255.185 256.662L255.814 256.714L256.443 256.766V252.646V248.526H255.769H255.095L255.14 252.594ZM328.916 250.119V251.713H327.406H325.896V252.384V253.055H327.406H328.916V254.901V256.746H329.581H330.247L330.294 254.943L330.342 253.139L332.229 253.092L334.116 253.044V252.379V251.713H332.187H330.258V250.119V248.526H329.587H328.916V250.119ZM403.234 252.636V256.746H403.905H404.576V252.636V248.526H403.905H403.234V252.636ZM477.384 250.119V251.713H476.126H474.868V252.384V253.055H476.126H477.384V254.901V256.746H478.049H478.715L478.762 254.943L478.81 253.139L481.043 253.092L483.275 253.045L483.224 252.421L483.172 251.797L480.949 251.75L478.726 251.703V250.115V248.526H478.055H477.384V250.119ZM552.541 252.636V256.746H553.212H553.883V252.636V248.526H553.212H552.541V252.636ZM627.194 250.119V251.713H625.517H623.839V252.384V253.055H625.517H627.194V254.901V256.746H627.86H628.525L628.573 254.943L628.62 253.139L630.424 253.092L632.227 253.044V252.379V251.713H630.382H628.536V250.119V248.526H627.865H627.194V250.119ZM0.608398 252.384V253.055H4.71853H8.82867V252.384V251.713H4.71853H0.608398V252.384ZM17.0489 252.384V253.055H21.243H25.437V252.384V251.713H21.243H17.0489V252.384ZM33.6572 252.384V253.055H37.7674H41.8775V252.384V251.713H37.7674H33.6572V252.384ZM50.2655 252.384V253.055H54.3757H58.4858V252.384V251.713H54.3757H50.2655V252.384ZM66.7061 252.384V253.055H70.9001H75.0941V252.384V251.713H70.9001H66.7061V252.384ZM83.3144 252.381V253.055H87.5185H91.7227L91.6705 252.426L91.6185 251.797L87.4665 251.752L83.3144 251.707V252.381ZM116.363 252.384V253.055H120.557H124.751V252.384V251.713H120.557H116.363V252.384ZM132.972 252.384V253.055H137.166H141.36V252.384V251.713H137.166H132.972V252.384ZM144.044 252.381V253.055H148.08H152.117L152.064 252.426L152.012 251.797L148.028 251.752L144.044 251.707V252.381ZM160.316 252.384V253.055H164.427H168.537V252.384V251.713H164.427H160.316V252.384ZM193.365 252.381V253.055H197.569H201.774L201.721 252.426L201.669 251.797L197.517 251.752L193.365 251.707V252.381ZM209.974 252.384V253.055H214.084H218.194V252.384V251.713H214.084H209.974V252.384ZM226.526 251.825C226.464 251.886 226.414 252.188 226.414 252.496V253.055H230.608H234.802V252.384V251.713H230.72C228.475 251.713 226.587 251.764 226.526 251.825ZM243.022 252.384V253.055H247.216H251.41V252.384V251.713H247.216H243.022V252.384ZM259.631 252.384V253.055H263.741H267.851V252.384V251.713H263.741H259.631V252.384ZM276.183 251.825C276.122 251.886 276.071 252.188 276.071 252.496V253.055H280.265H284.459V252.384V251.713H280.377C278.132 251.713 276.245 251.764 276.183 251.825ZM292.68 252.384V253.055H296.874H301.068V252.384V251.713H296.874H292.68V252.384ZM309.288 252.384V253.055H313.482H317.676V252.384V251.713H313.482H309.288V252.384ZM342.505 252.384V253.055H346.615H350.725V252.384V251.713H346.615H342.505V252.384ZM358.945 252.384V253.055H363.139H367.333V252.384V251.713H363.139H358.945V252.384ZM375.553 252.384V253.055H379.663H383.774V252.384V251.713H379.663H375.553V252.384ZM392.162 252.384V253.055H396.272H400.382V252.384V251.713H396.272H392.162V252.384ZM408.602 252.384V253.055H412.796H416.99V252.384V251.713H412.796H408.602V252.384ZM425.211 252.384V253.055H429.405H433.599V252.384V251.713H429.405H425.211V252.384ZM441.819 252.384V253.055H445.929H450.039V252.384V251.713H445.929H441.819V252.384ZM458.259 252.384V253.055H462.453H466.647V252.384V251.713H462.453H458.259V252.384ZM491.476 252.384V253.055H495.586H499.696V252.384V251.713H495.586H491.476V252.384ZM508.084 252.384V253.055H512.194H516.305V252.384V251.713H512.194H508.084V252.384ZM524.525 252.384V253.055H528.719H532.913V252.384V251.713H528.719H524.525V252.384ZM541.133 252.384V253.055H545.243H549.353V252.384V251.713H545.243H541.133V252.384ZM557.686 251.825C557.624 251.886 557.574 252.188 557.574 252.496V253.055H561.768H565.962V252.384V251.713H561.88C559.634 251.713 557.747 251.764 557.686 251.825ZM574.182 252.384V253.055H578.376H582.57V252.384V251.713H578.376H574.182V252.384ZM590.79 252.381V253.055H594.994H599.199L599.146 252.426L599.094 251.797L594.942 251.752L590.79 251.707V252.381ZM607.399 252.384V253.055H611.509H615.619V252.384V251.713H611.509H607.399V252.384ZM640.447 252.384V253.055H644.641H648.835V252.384V251.713H644.641H640.447V252.384ZM657.056 252.384V253.055H661.166H665.276V252.384V251.713H661.166H657.056V252.384ZM28.4567 269.16V273.354H29.1277H29.7987V269.16V264.966H29.1277H28.4567V269.16ZM103.23 265.07C103.164 265.136 103.11 267.031 103.11 269.282V273.374L103.823 273.322L104.536 273.27V269.16V265.05L103.943 265C103.617 264.973 103.296 265.004 103.23 265.07ZM180.56 265.078C180.498 265.14 180.448 267.027 180.448 269.272V273.354H181.119H181.79V269.16V264.966H181.231C180.923 264.966 180.621 265.017 180.56 265.078ZM255.177 265.179C255.132 265.297 255.115 267.165 255.14 269.332L255.185 273.27L255.814 273.322L256.443 273.375V269.17V264.966H255.851C255.525 264.966 255.222 265.062 255.177 265.179ZM329.028 265.078C328.966 265.14 328.916 267.027 328.916 269.272V273.354H329.587H330.258V269.16V264.966H329.699C329.391 264.966 329.089 265.017 329.028 265.078ZM403.234 269.15V273.354H403.908H404.582L404.537 269.202L404.492 265.05L403.863 264.998L403.234 264.946V269.15ZM477.384 269.16V273.354H478.055H478.726V269.16V264.966H478.055H477.384V269.16ZM552.541 269.16V273.354H553.212H553.883V269.16V264.966H553.212H552.541V269.16ZM627.306 265.078C627.245 265.14 627.194 267.027 627.194 269.272V273.354H627.865H628.536V269.16V264.966H627.977C627.67 264.966 627.368 265.017 627.306 265.078ZM28.4957 285.727L28.5405 289.879L29.1696 289.931L29.7987 289.983V285.779V281.575H29.1248H28.4508L28.4957 285.727ZM103.149 285.727L103.194 289.879H103.865H104.536L104.581 285.727L104.626 281.575H103.865H103.104L103.149 285.727ZM180.487 285.727L180.532 289.879L181.161 289.931L181.79 289.983V285.779V281.575H181.116H180.442L180.487 285.727ZM255.14 285.727L255.185 289.879L255.814 289.931L256.443 289.983V285.779V281.575H255.769H255.095L255.14 285.727ZM328.955 285.727L329 289.879H329.587H330.174L330.219 285.727L330.264 281.575H329.587H328.91L328.955 285.727ZM403.234 285.779V289.983L403.863 289.931L404.492 289.879L404.537 285.727L404.582 281.575H403.908H403.234V285.779ZM477.423 285.727L477.468 289.879L478.097 289.931L478.726 289.983V285.779V281.575H478.052H477.378L477.423 285.727ZM552.541 285.779V289.983L553.17 289.931L553.799 289.879L553.844 285.727L553.889 281.575H553.215H552.541V285.779ZM627.233 285.727L627.278 289.879L627.907 289.931L628.536 289.983V285.779V281.575H627.862H627.188L627.233 285.727ZM28.4567 296.421V300.532H29.1277H29.7987V296.421V292.311H29.1277H28.4567V296.421ZM103.11 296.421V300.532H103.865H104.62V296.421V292.311H103.865H103.11V296.421ZM180.448 296.421V300.532H181.119H181.79V296.421V292.311H181.119H180.448V296.421ZM255.101 296.421V300.532H255.772H256.443V296.421V292.311H255.772H255.101V296.421ZM328.916 296.421V300.532H329.587H330.258V296.421V292.311H329.587H328.916V296.421ZM403.234 296.421V300.532H403.905H404.576V296.421V292.311H403.905H403.234V296.421ZM477.384 296.421V300.532H478.055H478.726V296.421V292.311H478.055H477.384V296.421ZM552.541 296.421V300.532H553.212H553.883V296.421V292.311H553.212H552.541V296.421ZM627.194 296.421V300.532H627.865H628.536V296.421V292.311H627.865H627.194V296.421ZM28.4567 313.03V317.14H29.1277H29.7987V313.03V308.92H29.1277H28.4567V313.03ZM103.11 313.03V317.14H103.865H104.62V313.03V308.92H103.865H103.11V313.03ZM180.448 313.03V317.14H181.119H181.79V313.03V308.92H181.119H180.448V313.03ZM255.101 313.03V317.14H255.772H256.443V313.03V308.92H255.772H255.101V313.03ZM328.916 313.03V317.14H329.587H330.258V313.03V308.92H329.587H328.916V313.03ZM403.234 313.03V317.14H403.905H404.576V313.03V308.92H403.905H403.234V313.03ZM477.384 313.03V317.14H478.055H478.726V313.03V308.92H478.055H477.384V313.03ZM552.541 313.03V317.14H553.212H553.883V313.03V308.92H553.212H552.541V313.03ZM627.194 313.03V317.14H627.865H628.536V313.03V308.92H627.865H627.194V313.03ZM28.4567 329.554V333.748H29.1277H29.7987V329.554V325.36H29.1277H28.4567V329.554ZM103.23 325.464C103.164 325.53 103.11 326.364 103.11 327.317V329.051H101.516H99.9227V329.722V330.393H101.51H103.098L103.146 332.029L103.194 333.664H103.865H104.536L104.584 332.029L104.632 330.393H106.388H108.143V329.722V329.051H106.387H104.631L104.584 327.247L104.536 325.444L103.943 325.394C103.617 325.367 103.296 325.398 103.23 325.464ZM180.448 327.2V329.039L178.644 329.087L176.841 329.135L176.789 329.764L176.737 330.393H178.592H180.448V332.07V333.748H181.119H181.79V332.07V330.393H183.467H185.145V329.722V329.051H183.467H181.79V327.205V325.36H181.119H180.448V327.2ZM255.177 325.573C255.132 325.691 255.115 327.559 255.14 329.725L255.185 333.664L255.814 333.716L256.443 333.768V329.564V325.36H255.851C255.525 325.36 255.222 325.456 255.177 325.573ZM328.916 327.205V329.051H327.406H325.896V329.722V330.393H327.4H328.904L328.952 332.029L329 333.664L329.623 333.716L330.246 333.768L330.294 332.122L330.342 330.477L332.229 330.429L334.116 330.382V329.716V329.051H332.187H330.258V327.205V325.36H329.587H328.916V327.205ZM403.234 329.554V333.748H403.905H404.576V329.554V325.36H403.905H403.234V329.554ZM477.384 327.205V329.051H476.126H474.868V329.722V330.393H476.126H477.384V332.07V333.748H478.049H478.714L478.762 332.112L478.81 330.477L480.991 330.393L483.172 330.309V329.722V329.135L480.949 329.088L478.726 329.041V327.201V325.36H478.055H477.384V327.205ZM552.541 329.554V333.748H553.212H553.883V329.554V325.36H553.212H552.541V329.554ZM627.194 327.205V329.051H625.517H623.839V329.722V330.393H625.511H627.182L627.23 332.029L627.278 333.664L627.907 333.716L628.536 333.768V332.081V330.393H630.382H632.227V329.722V329.051H630.382H628.536V327.205V325.36H627.865H627.194V327.205ZM0.608398 329.722V330.393H4.71853H8.82867V329.722V329.051H4.71853H0.608398V329.722ZM17.0489 329.719V330.393H21.253H25.4573L25.4051 329.764L25.3531 329.135L21.201 329.09L17.0489 329.045V329.719ZM33.6572 329.722V330.393H37.7674H41.8775V329.722V329.051H37.7674H33.6572V329.722ZM50.2655 329.722V330.393H54.3757H58.4858V329.722V329.051H54.3757H50.2655V329.722ZM66.818 329.163C66.7564 329.224 66.7061 329.526 66.7061 329.834V330.393H70.9001H75.0941V329.722V329.051H71.012C68.7667 329.051 66.8794 329.101 66.818 329.163ZM83.3144 329.722V330.399L87.4665 330.354L91.6185 330.309V329.722V329.135L87.4665 329.09L83.3144 329.045V329.722ZM116.475 329.163C116.414 329.224 116.363 329.526 116.363 329.834V330.393H120.557H124.751V329.722V329.051H120.669C118.424 329.051 116.537 329.101 116.475 329.163ZM132.972 329.719V330.393H137.176H141.38L141.328 329.764L141.276 329.135L137.124 329.09L132.972 329.045V329.719ZM144.044 329.719V330.393H148.08H152.117L152.064 329.764L152.012 329.135L148.028 329.09L144.044 329.045V329.719ZM160.316 329.722V330.393H164.427H168.537V329.722V329.051H164.427H160.316V329.722ZM193.365 329.719V330.393H197.569H201.774L201.721 329.764L201.669 329.135L197.517 329.09L193.365 329.045V329.719ZM209.974 329.722V330.393H214.084H218.194V329.722V329.051H214.084H209.974V329.722ZM226.526 329.163C226.464 329.224 226.414 329.526 226.414 329.834V330.393H230.608H234.802V329.722V329.051H230.72C228.475 329.051 226.587 329.101 226.526 329.163ZM243.022 329.722V330.393H247.216H251.41V329.722V329.051H247.216H243.022V329.722ZM259.631 329.722V330.393H263.741H267.851V329.722V329.051H263.741H259.631V329.722ZM276.137 329.29C276.086 329.422 276.07 329.705 276.1 329.919L276.155 330.309L280.307 330.354L284.459 330.399V329.725V329.051H280.344C276.934 329.051 276.213 329.092 276.137 329.29ZM292.792 329.163C292.73 329.224 292.68 329.526 292.68 329.834V330.393H296.874H301.068V329.722V329.051H296.986C294.74 329.051 292.853 329.101 292.792 329.163ZM309.288 329.719V330.393H313.492H317.696L317.644 329.764L317.592 329.135L313.44 329.09L309.288 329.045V329.719ZM342.505 329.722V330.393H346.615H350.725V329.722V329.051H346.615H342.505V329.722ZM358.945 329.722V330.393H363.139H367.333V329.722V329.051H363.139H358.945V329.722ZM375.553 329.722V330.393H379.663H383.774V329.722V329.051H379.663H375.553V329.722ZM392.162 329.722V330.393H396.272H400.382V329.722V329.051H396.272H392.162V329.722ZM408.714 329.163C408.653 329.224 408.602 329.526 408.602 329.834V330.393H412.796H416.99V329.722V329.051H412.908C410.663 329.051 408.775 329.101 408.714 329.163ZM425.211 329.719V330.393H429.415H433.619L433.567 329.764L433.515 329.135L429.363 329.09L425.211 329.045V329.719ZM441.819 329.722V330.393H445.929H450.039V329.722V329.051H445.929H441.819V329.722ZM458.259 329.722V330.393H462.453H466.647V329.722V329.051H462.453H458.259V329.722ZM491.476 329.722V330.393H495.586H499.696V329.722V329.051H495.586H491.476V329.722ZM508.084 329.722V330.393H512.194H516.305V329.722V329.051H512.194H508.084V329.722ZM524.525 329.722V330.393H528.719H532.913V329.722V329.051H528.719H524.525V329.722ZM541.133 329.722V330.393H545.243H549.353V329.722V329.051H545.243H541.133V329.722ZM557.686 329.163C557.624 329.224 557.574 329.526 557.574 329.834V330.393H561.768H565.962V329.722V329.051H561.88C559.634 329.051 557.747 329.101 557.686 329.163ZM574.297 329.16C574.234 329.223 574.182 329.526 574.182 329.834V330.393H578.386H582.59L582.538 329.764L582.486 329.135L578.449 329.09C576.228 329.065 574.36 329.097 574.297 329.16ZM590.79 329.722V330.399L594.942 330.354L599.094 330.309V329.722V329.135L594.942 329.09L590.79 329.045V329.722ZM607.399 329.722V330.393H611.509H615.619V329.722V329.051H611.509H607.399V329.722ZM640.447 329.719V330.393H644.651H648.856L648.804 329.764L648.752 329.135L644.599 329.09L640.447 329.045V329.719ZM657.056 329.722V330.393H661.166H665.276V329.722V329.051H661.166H657.056V329.722ZM28.4957 346.12L28.5405 350.273L29.1696 350.325L29.7987 350.377V346.172V341.968H29.1248H28.4508L28.4957 346.12ZM103.189 342.171C103.142 342.294 103.124 344.167 103.149 346.334L103.194 350.273H103.865H104.536V346.162V342.052L103.906 342C103.496 341.966 103.245 342.026 103.189 342.171ZM180.487 346.12L180.532 350.273L181.161 350.325L181.79 350.377V346.172V341.968H181.116H180.442L180.487 346.12ZM255.177 342.182C255.132 342.299 255.115 344.167 255.14 346.334L255.185 350.273L255.814 350.325L256.443 350.377V346.172V341.968H255.851C255.525 341.968 255.222 342.064 255.177 342.182ZM328.955 346.12L329 350.273L329.629 350.325L330.258 350.377V346.172V341.968H329.584H328.91L328.955 346.12ZM403.234 346.172V350.377L403.863 350.325L404.492 350.273L404.537 346.12L404.582 341.968H403.908H403.234V346.172ZM477.423 346.12L477.468 350.273L478.097 350.325L478.726 350.377V346.172V341.968H478.052H477.378L477.423 346.12ZM552.541 346.172V350.377L553.17 350.325L553.799 350.273L553.844 346.12L553.889 341.968H553.215H552.541V346.172ZM627.233 346.12L627.278 350.273L627.907 350.325L628.536 350.377V346.172V341.968H627.862H627.188L627.233 346.12ZM28.4567 362.687V366.797H29.1277H29.7987V362.687V358.577H29.1277H28.4567V362.687ZM103.11 362.696V366.816L103.823 366.765L104.536 366.713L104.581 362.645L104.626 358.577H103.868H103.11V362.696ZM180.448 362.687V366.797H181.119H181.79V362.687V358.577H181.119H180.448V362.687ZM255.14 362.645L255.185 366.713L255.814 366.765L256.443 366.817V362.697V358.577H255.769H255.095L255.14 362.645ZM328.916 362.687V366.797H329.587H330.258V362.687V358.577H329.587H328.916V362.687ZM403.234 362.687V366.797H403.905H404.576V362.687V358.577H403.905H403.234V362.687ZM477.384 362.687V366.797H478.055H478.726V362.687V358.577H478.055H477.384V362.687ZM552.541 362.687V366.797H553.212H553.883V362.687V358.577H553.212H552.541V362.687ZM627.194 362.687V366.797H627.865H628.536V362.687V358.577H627.865H627.194V362.687ZM28.5686 375.129C28.507 375.191 28.4567 377.078 28.4567 379.323V383.405H29.1277H29.7987V379.211V375.017H29.2396C28.9319 375.017 28.63 375.068 28.5686 375.129ZM103.23 375.121C103.164 375.187 103.11 377.078 103.11 379.323V383.405H103.868H104.626L104.581 379.253L104.536 375.101L103.943 375.051C103.617 375.024 103.296 375.055 103.23 375.121ZM180.56 375.129C180.498 375.191 180.448 377.078 180.448 379.323V383.405H181.119H181.79V379.211V375.017H181.231C180.923 375.017 180.621 375.068 180.56 375.129ZM255.213 375.129C255.152 375.191 255.101 377.078 255.101 379.323V383.405H255.772H256.443V379.211V375.017H255.884C255.577 375.017 255.275 375.068 255.213 375.129ZM329.028 375.129C328.966 375.191 328.916 377.078 328.916 379.323V383.405H329.587H330.258V379.211V375.017H329.699C329.391 375.017 329.089 375.068 329.028 375.129ZM403.234 379.201V383.405H403.908H404.582L404.537 379.253L404.492 375.101L403.863 375.049L403.234 374.997V379.201ZM477.496 375.129C477.434 375.191 477.384 377.078 477.384 379.323V383.405H478.055H478.726V379.211V375.017H478.167C477.859 375.017 477.557 375.068 477.496 375.129ZM552.541 379.201V383.405H553.215H553.889L553.844 379.253L553.799 375.101L553.17 375.049L552.541 374.997V379.201ZM627.306 375.129C627.245 375.191 627.194 377.078 627.194 379.323V383.405H627.865H628.536V379.211V375.017H627.977C627.67 375.017 627.368 375.068 627.306 375.129ZM28.4567 395.82V400.014H29.1277H29.7987V395.82V391.626H29.1277H28.4567V395.82ZM103.149 395.778L103.194 399.93H103.865H104.536L104.581 395.778L104.626 391.626H103.865H103.104L103.149 395.778ZM180.487 395.778L180.532 399.93L181.161 399.982L181.79 400.034V395.83V391.626H181.116H180.442L180.487 395.778ZM255.14 395.778L255.185 399.93L255.814 399.982L256.443 400.034V395.83V391.626H255.769H255.095L255.14 395.778ZM328.955 395.778L329 399.93L329.629 399.982L330.258 400.034V395.83V391.626H329.584H328.91L328.955 395.778ZM403.234 395.83V400.034L403.863 399.982L404.492 399.93L404.537 395.778L404.582 391.626H403.908H403.234V395.83ZM477.423 395.778L477.468 399.93L478.097 399.982L478.726 400.034V395.83V391.626H478.052H477.378L477.423 395.778ZM552.541 395.82V400.014H553.212H553.883V395.82V391.626H553.212H552.541V395.82ZM627.233 395.778L627.278 399.93L627.907 399.982L628.536 400.034V395.83V391.626H627.862H627.188L627.233 395.778ZM0.608398 407.06V407.731H4.71853H8.82867V407.06V406.388H4.71853H0.608398V407.06ZM17.0489 407.06V407.731H21.243H25.437V407.06V406.388H21.243H17.0489V407.06ZM33.6572 407.06V407.731H37.7674H41.8775V407.06V406.388H37.7674H33.6572V407.06ZM50.2655 407.06V407.731H54.3757H58.4858V407.06V406.388H54.3757H50.2655V407.06ZM66.7061 407.06V407.731H70.9001H75.0941V407.06V406.388H70.9001H66.7061V407.06ZM83.3144 407.057V407.731H87.5185H91.7227L91.6705 407.101L91.6185 406.472L87.4665 406.428L83.3144 406.383V407.057ZM99.9227 407.06V407.731H104.033H108.143V407.06V406.388H104.033H99.9227V407.06ZM116.363 407.06V407.731H120.557H124.751V407.06V406.388H120.557H116.363V407.06ZM132.972 407.06V407.731H137.166H141.36V407.06V406.388H137.166H132.972V407.06ZM144.044 407.056V407.731H148.08H152.117L152.064 407.101L152.012 406.472L148.028 406.427L144.044 406.382V407.056ZM160.316 407.06V407.731H164.427H168.537V407.06V406.388H164.427H160.316V407.06ZM176.757 407.06V407.731H180.951H185.145V407.06V406.388H180.951H176.757V407.06ZM193.365 407.057V407.731H197.569H201.774L201.721 407.101L201.669 406.472L197.517 406.428L193.365 406.383V407.057ZM209.974 407.06V407.731H214.084H218.194V407.06V406.388H214.084H209.974V407.06ZM226.526 406.5C226.464 406.562 226.414 406.864 226.414 407.171V407.731H230.608H234.802V407.06V406.388H230.72C228.475 406.388 226.587 406.439 226.526 406.5ZM243.022 407.06V407.731H247.216H251.41V407.06V406.388H247.216H243.022V407.06ZM259.631 407.06V407.731H263.741H267.851V407.06V406.388H263.741H259.631V407.06ZM276.183 406.5C276.122 406.562 276.071 406.864 276.071 407.171V407.731H280.265H284.459V407.06V406.388H280.377C278.132 406.388 276.245 406.439 276.183 406.5ZM292.68 407.06V407.731H296.874H301.068V407.06V406.388H296.874H292.68V407.06ZM309.288 407.057V407.731H313.492H317.696L317.644 407.101L317.592 406.472L313.44 406.428L309.288 406.383V407.057ZM325.896 407.06V407.731H330.006H334.116V407.06V406.388H330.006H325.896V407.06ZM342.505 407.06V407.731H346.615H350.725V407.06V406.388H346.615H342.505V407.06ZM358.945 407.06V407.731H363.139H367.333V407.06V406.388H363.139H358.945V407.06ZM375.553 407.06V407.731H379.663H383.774V407.06V406.388H379.663H375.553V407.06ZM392.162 407.06V407.731H396.272H400.382V407.06V406.388H396.272H392.162V407.06ZM408.602 407.06V407.731H412.796H416.99V407.06V406.388H412.796H408.602V407.06ZM425.211 407.06V407.731H429.405H433.599V407.06V406.388H429.405H425.211V407.06ZM441.819 407.06V407.731H445.929H450.039V407.06V406.388H445.929H441.819V407.06ZM458.259 407.06V407.731H462.453H466.647V407.06V406.388H462.453H458.259V407.06ZM474.868 407.057V407.731H479.072H483.276L483.224 407.101L483.172 406.472L479.02 406.428L474.868 406.383V407.057ZM491.476 407.06V407.731H495.586H499.696V407.06V406.388H495.586H491.476V407.06ZM508.084 407.06V407.731H512.194H516.305V407.06V406.388H512.194H508.084V407.06ZM524.525 407.06V407.731H528.719H532.913V407.06V406.388H528.719H524.525V407.06ZM541.133 407.06V407.731H545.243H549.353V407.06V406.388H545.243H541.133V407.06ZM557.686 406.5C557.624 406.562 557.574 406.864 557.574 407.171V407.731H561.768H565.962V407.06V406.388H561.88C559.634 406.388 557.747 406.439 557.686 406.5ZM574.182 407.06V407.731H578.376H582.57V407.06V406.388H578.376H574.182V407.06ZM590.79 407.057V407.731H594.994H599.199L599.146 407.101L599.094 406.472L594.942 406.428L590.79 406.383V407.057ZM607.399 407.06V407.731H611.509H615.619V407.06V406.388H611.509H607.399V407.06ZM623.839 407.06V407.731H628.033H632.227V407.06V406.388H628.033H623.839V407.06ZM640.447 407.06V407.731H644.641H648.835V407.06V406.388H644.641H640.447V407.06ZM657.056 407.06V407.731H661.166H665.276V407.06V406.388H661.166H657.056V407.06ZM28.4567 412.344V416.454H29.1277H29.7987V412.344V408.234H29.1277H28.4567V412.344ZM103.11 412.334V416.454H103.868H104.626L104.581 412.386L104.536 408.318L103.823 408.266L103.11 408.215V412.334ZM180.448 412.344V416.454H181.119H181.79V412.344V408.234H181.119H180.448V412.344ZM255.213 408.346C255.152 408.407 255.101 410.257 255.101 412.456V416.454H255.772H256.443V412.344V408.234H255.884C255.577 408.234 255.275 408.284 255.213 408.346ZM328.916 412.344V416.454H329.587H330.258V412.344V408.234H329.587H328.916V412.344ZM403.234 412.344V416.454H403.905H404.576V412.344V408.234H403.905H403.234V412.344ZM477.384 412.344V416.454H478.055H478.726V412.344V408.234H478.055H477.384V412.344ZM552.541 412.344V416.454H553.212H553.883V412.344V408.234H553.212H552.541V412.344ZM627.194 412.344V416.454H627.865H628.536V412.344V408.234H627.865H627.194V412.344ZM28.4567 428.952V433.062H29.1277H29.7987V428.952V424.842H29.1277H28.4567V428.952ZM103.11 428.952V433.082L103.823 433.03L104.536 432.979V428.952V424.926L103.823 424.875L103.11 424.823V428.952ZM180.448 428.952V433.062H181.119H181.79V428.952V424.842H181.119H180.448V428.952ZM255.177 425.056C255.132 425.173 255.115 427.004 255.14 429.124L255.185 432.979L255.814 433.031L256.443 433.083V428.962V424.842H255.851C255.525 424.842 255.222 424.938 255.177 425.056ZM328.916 428.952V433.062H329.587H330.258V428.952V424.842H329.587H328.916V428.952ZM403.234 428.952V433.062H403.905H404.576V428.952V424.842H403.905H403.234V428.952ZM477.384 428.952V433.062H478.055H478.726V428.952V424.842H478.055H477.384V428.952ZM552.541 428.952V433.062H553.212H553.883V428.952V424.842H553.212H552.541V428.952ZM627.194 428.952V433.062H627.865H628.536V428.952V424.842H627.865H627.194V428.952Z" fill="white" fill-opacity="0.18"/>
</svg>
